<?xml version="1.0" encoding="utf-8"?>
<!-- Generator: Adobe Illustrator 21.1.0, SVG Export Plug-In . SVG Version: 6.00 Build 0)  -->
<svg version="1.1" xmlns="http://www.w3.org/2000/svg" xmlns:xlink="http://www.w3.org/1999/xlink" x="0px" y="0px"
	 viewBox="0 0 1584 1584" style="enable-background:new 0 0 1584 1584;" xml:space="preserve">
<style type="text/css">
	.st0{fill:#F4F4F4;}
	.st1{fill:#B9B9B9;}
	.st2{fill:#4F4F4F;}
</style>
<g id="white">
	<g>
		<path class="st0" d="M220.1,1504.8c-14.9-15.5-29.6-30.3-43.7-45.7c-19.8-21.8-39.6-43.6-58.4-66.2c-16.9-20.3-29.8-43.2-37-68.7
			c-5.3-19-7.4-38.8-0.3-57.8c18.1-48.3,72.7-64.7,112.9-31c10.1,8.5,18.4,19,27,28.1c7.4-8,15.5-17.8,24.7-26.4
			c15.8-14.8,35.2-21.7,56.6-18.9c25.7,3.4,44.2,18.1,55.4,41.5c8.4,17.5,8.1,36,4.6,54.5c-6.8,35.4-25.6,64.7-49.1,91
			c-29.5,33-60.1,65.1-90.2,97.6C222,1503.3,221.3,1503.7,220.1,1504.8z"/>
	</g>
	<g>
		<path class="st0" d="M220.1,1217.5c-14.9-15.5-29.6-30.3-43.7-45.7c-19.8-21.8-39.6-43.6-58.4-66.2c-16.9-20.3-29.8-43.2-37-68.7
			c-5.3-19-7.4-38.8-0.3-57.8c18.1-48.3,72.7-64.7,112.9-31c10.1,8.5,18.4,19,27,28.1c7.4-8,15.5-17.8,24.7-26.4
			c15.8-14.8,35.2-21.7,56.6-18.9c25.7,3.4,44.2,18.1,55.4,41.5c8.4,17.5,8.1,36,4.6,54.5c-6.8,35.4-25.6,64.7-49.1,91
			c-29.5,33-60.1,65.1-90.2,97.6C222,1215.9,221.3,1216.4,220.1,1217.5z"/>
	</g>
	<g>
		<path class="st0" d="M495.1,73.7c14.9,15.5,29.6,30.3,43.7,45.7c19.8,21.8,39.6,43.6,58.4,66.2c16.9,20.3,29.8,43.2,37,68.7
			c5.3,19,7.4,38.8,0.3,57.8c-18.1,48.3-72.7,64.7-112.9,31c-10.1-8.5-18.4-19-27-28.1c-7.4,8-15.5,17.8-24.7,26.4
			c-15.8,14.8-35.2,21.7-56.6,18.9c-25.7-3.4-44.2-18.1-55.4-41.5c-8.4-17.5-8.1-36-4.6-54.5c6.8-35.4,25.6-64.7,49.1-91
			c29.5-33,60.1-65.1,90.2-97.6C493.2,75.2,493.8,74.8,495.1,73.7z"/>
	</g>
	<g>
		<path class="st0" d="M495.1,361c14.9,15.5,29.6,30.3,43.7,45.7c19.8,21.8,39.6,43.6,58.4,66.2c16.9,20.3,29.8,43.2,37,68.7
			c5.3,19,7.4,38.8,0.3,57.8c-18.1,48.3-72.7,64.7-112.9,31c-10.1-8.5-18.4-19-27-28.1c-7.4,8-15.5,17.8-24.7,26.4
			c-15.8,14.8-35.2,21.7-56.6,18.9c-25.7-3.4-44.2-18.1-55.4-41.5c-8.4-17.5-8.1-36-4.6-54.5c6.8-35.4,25.6-64.7,49.1-91
			c29.5-33,60.1-65.1,90.2-97.6C493.2,362.6,493.8,362.1,495.1,361z"/>
	</g>
	<g>
		<path class="st0" d="M495.1,648.3c14.9,15.5,29.6,30.3,43.7,45.7c19.8,21.8,39.6,43.6,58.4,66.2c16.9,20.3,29.8,43.2,37,68.7
			c5.3,19,7.4,38.8,0.3,57.8c-18.1,48.3-72.7,64.7-112.9,31c-10.1-8.5-18.4-19-27-28.1c-7.4,8-15.5,17.8-24.7,26.4
			c-15.8,14.8-35.2,21.7-56.6,18.9c-25.7-3.4-44.2-18.1-55.4-41.5c-8.4-17.5-8.1-36-4.6-54.5c6.8-35.4,25.6-64.7,49.1-91
			c29.5-33,60.1-65.1,90.2-97.6C493.2,649.9,493.8,649.4,495.1,648.3z"/>
	</g>
	<g>
		<path class="st0" d="M761.6,1220.2c-14.9-15.5-29.6-30.3-43.7-45.7c-19.8-21.8-39.6-43.6-58.4-66.2c-16.9-20.3-29.8-43.2-37-68.7
			c-5.3-19-7.4-38.8-0.3-57.8c18.1-48.3,72.7-64.7,112.9-31c10.1,8.5,18.4,19,27,28.1c7.4-8,15.5-17.8,24.7-26.4
			c15.8-14.8,35.2-21.7,56.6-18.9c25.7,3.4,44.2,18.1,55.4,41.5c8.4,17.5,8.1,36,4.6,54.5c-6.8,35.4-25.6,64.7-49.1,91
			c-29.5,33-60.1,65.1-90.2,97.6C763.5,1218.7,762.9,1219.2,761.6,1220.2z"/>
	</g>
	<g>
		<path class="st0" d="M1036.6,76.4c14.9,15.5,29.6,30.3,43.7,45.7c19.8,21.8,39.6,43.6,58.4,66.2c16.9,20.3,29.8,43.2,37,68.7
			c5.3,19,7.4,38.8,0.3,57.8c-18.1,48.3-72.7,64.7-112.9,31c-10.1-8.5-18.4-19-27-28.1c-7.4,8-15.5,17.8-24.7,26.4
			c-15.8,14.8-35.2,21.7-56.6,18.9c-25.7-3.4-44.2-18.1-55.4-41.5c-8.4-17.5-8.1-36-4.6-54.5c6.8-35.4,25.6-64.7,49.1-91
			c29.5-33,60.1-65.1,90.2-97.6C1034.7,78,1035.4,77.5,1036.6,76.4z"/>
	</g>
	<g>
		<path class="st0" d="M1036.6,363.8c14.9,15.5,29.6,30.3,43.7,45.7c19.8,21.8,39.6,43.6,58.4,66.2c16.9,20.3,29.8,43.2,37,68.7
			c5.3,19,7.4,38.8,0.3,57.8c-18.1,48.3-72.7,64.7-112.9,31c-10.1-8.5-18.4-19-27-28.1c-7.4,8-15.5,17.8-24.7,26.4
			c-15.8,14.8-35.2,21.7-56.6,18.9c-25.7-3.4-44.2-18.1-55.4-41.5c-8.4-17.5-8.1-36-4.6-54.5c6.8-35.4,25.6-64.7,49.1-91
			c29.5-33,60.1-65.1,90.2-97.6C1034.7,365.3,1035.4,364.8,1036.6,363.8z"/>
	</g>
	<g>
		<path class="st0" d="M1036.6,938.4c14.9,15.5,29.6,30.3,43.7,45.7c19.8,21.8,39.6,43.6,58.4,66.2c16.9,20.3,29.8,43.2,37,68.7
			c5.3,19,7.4,38.8,0.3,57.8c-18.1,48.3-72.7,64.7-112.9,31c-10.1-8.5-18.4-19-27-28.1c-7.4,8-15.5,17.8-24.7,26.4
			c-15.8,14.8-35.2,21.7-56.6,18.9c-25.7-3.4-44.2-18.1-55.4-41.5c-8.4-17.5-8.1-36-4.6-54.5c6.8-35.4,25.6-64.7,49.1-91
			c29.5-33,60.1-65.1,90.2-97.6C1034.7,940,1035.4,939.5,1036.6,938.4z"/>
	</g>
	<g>
		<path class="st0" d="M1036.6,1225.7c14.9,15.5,29.6,30.3,43.7,45.7c19.8,21.8,39.6,43.6,58.4,66.2c16.9,20.3,29.8,43.2,37,68.7
			c5.3,19,7.4,38.8,0.3,57.8c-18.1,48.3-72.7,64.7-112.9,31c-10.1-8.5-18.4-19-27-28.1c-7.4,8-15.5,17.8-24.7,26.4
			c-15.8,14.8-35.2,21.7-56.6,18.9c-25.7-3.4-44.2-18.1-55.4-41.5c-8.4-17.5-8.1-36-4.6-54.5c6.8-35.4,25.6-64.7,49.1-91
			c29.5-33,60.1-65.1,90.2-97.6C1034.7,1227.3,1035.4,1226.8,1036.6,1225.7z"/>
	</g>
	<g>
		<path class="st0" d="M1324.5,943.4c-14.9-15.5-29.6-30.3-43.7-45.7c-19.8-21.8-39.6-43.6-58.4-66.2c-16.9-20.3-29.8-43.2-37-68.7
			c-5.3-19-7.4-38.8-0.3-57.8c18.1-48.3,72.7-64.7,112.9-31c10.1,8.5,18.4,19,27,28.1c7.4-8,15.5-17.8,24.7-26.4
			c15.8-14.8,35.2-21.7,56.6-18.9c25.7,3.4,44.2,18.1,55.4,41.5c8.4,17.5,8.1,36,4.6,54.5c-6.8,35.4-25.6,64.7-49.1,91
			c-29.5,33-60.1,65.1-90.2,97.6C1326.4,941.9,1325.7,942.3,1324.5,943.4z"/>
	</g>
</g>
<g id="yellow">
	<g>
		<path class="st1" d="M220.1,930.2c-14.9-15.5-29.6-30.3-43.7-45.7c-19.8-21.8-39.6-43.6-58.4-66.2c-16.9-20.3-29.8-43.2-37-68.7
			c-5.3-19-7.4-38.8-0.3-57.8c18.1-48.3,72.7-64.7,112.9-31c10.1,8.5,18.4,19,27,28.1c7.4-8,15.5-17.8,24.7-26.4
			c15.8-14.8,35.2-21.7,56.6-18.9c25.7,3.4,44.2,18.1,55.4,41.5c8.4,17.5,8.1,36,4.6,54.5c-6.8,35.4-25.6,64.7-49.1,91
			c-29.5,33-60.1,65.1-90.2,97.6C222,928.6,221.3,929.1,220.1,930.2z"/>
	</g>
	<g>
		<path class="st1" d="M761.6,1507.6c-14.9-15.5-29.6-30.3-43.7-45.7c-19.8-21.8-39.6-43.6-58.4-66.2c-16.9-20.3-29.8-43.2-37-68.7
			c-5.3-19-7.4-38.8-0.3-57.8c18.1-48.3,72.7-64.7,112.9-31c10.1,8.5,18.4,19,27,28.1c7.4-8,15.5-17.8,24.7-26.4
			c15.8-14.8,35.2-21.7,56.6-18.9c25.7,3.4,44.2,18.1,55.4,41.5c8.4,17.5,8.1,36,4.6,54.5c-6.8,35.4-25.6,64.7-49.1,91
			c-29.5,33-60.1,65.1-90.2,97.6C763.5,1506,762.9,1506.5,761.6,1507.6z"/>
	</g>
	<g>
		<path class="st1" d="M761.6,358.3c-14.9-15.5-29.6-30.3-43.7-45.7c-19.8-21.8-39.6-43.6-58.4-66.2c-16.9-20.3-29.8-43.2-37-68.7
			c-5.3-19-7.4-38.8-0.3-57.8c18.1-48.3,72.7-64.7,112.9-31c10.1,8.5,18.4,19,27,28.1c7.4-8,15.5-17.8,24.7-26.4
			c15.8-14.8,35.2-21.7,56.6-18.9c25.7,3.4,44.2,18.1,55.4,41.5c8.4,17.5,8.1,36,4.6,54.5c-6.8,35.4-25.6,64.7-49.1,91
			c-29.5,33-60.1,65.1-90.2,97.6C763.5,356.7,762.9,357.2,761.6,358.3z"/>
	</g>
	<g>
		<path class="st1" d="M1036.6,651.1c14.9,15.5,29.6,30.3,43.7,45.7c19.8,21.8,39.6,43.6,58.4,66.2c16.9,20.3,29.8,43.2,37,68.7
			c5.3,19,7.4,38.8,0.3,57.8c-18.1,48.3-72.7,64.7-112.9,31c-10.1-8.5-18.4-19-27-28.1c-7.4,8-15.5,17.8-24.7,26.4
			c-15.8,14.8-35.2,21.7-56.6,18.9c-25.7-3.4-44.2-18.1-55.4-41.5c-8.4-17.5-8.1-36-4.6-54.5c6.8-35.4,25.6-64.7,49.1-91
			c29.5-33,60.1-65.1,90.2-97.6C1034.7,652.6,1035.4,652.2,1036.6,651.1z"/>
	</g>
	<g>
		<path class="st1" d="M1324.5,368.8c-14.9-15.5-29.6-30.3-43.7-45.7c-19.8-21.8-39.6-43.6-58.4-66.2c-16.9-20.3-29.8-43.2-37-68.7
			c-5.3-19-7.4-38.8-0.3-57.8c18.1-48.3,72.7-64.7,112.9-31c10.1,8.5,18.4,19,27,28.1c7.4-8,15.5-17.8,24.7-26.4
			c15.8-14.8,35.2-21.7,56.6-18.9c25.7,3.4,44.2,18.1,55.4,41.5c8.4,17.5,8.1,36,4.6,54.5c-6.8,35.4-25.6,64.7-49.1,91
			c-29.5,33-60.1,65.1-90.2,97.6C1326.4,367.2,1325.7,367.7,1324.5,368.8z"/>
	</g>
</g>
<g id="blue">
	<g>
		<path d="M220.1,642.8c-14.9-15.5-29.6-30.3-43.7-45.7c-19.8-21.8-39.6-43.6-58.4-66.2c-16.9-20.3-29.8-43.2-37-68.7
			c-5.3-19-7.4-38.8-0.3-57.8c18.1-48.3,72.7-64.7,112.9-31c10.1,8.5,18.4,19,27,28.1c7.4-8,15.5-17.8,24.7-26.4
			c15.8-14.8,35.2-21.7,56.6-18.9c25.7,3.4,44.2,18.1,55.4,41.5c8.4,17.5,8.1,36,4.6,54.5c-6.8,35.4-25.6,64.7-49.1,91
			c-29.5,33-60.1,65.1-90.2,97.6C222,641.3,221.3,641.8,220.1,642.8z"/>
	</g>
	<g>
		<path d="M495.1,1223c14.9,15.5,29.6,30.3,43.7,45.7c19.8,21.8,39.6,43.6,58.4,66.2c16.9,20.3,29.8,43.2,37,68.7
			c5.3,19,7.4,38.8,0.3,57.8c-18.1,48.3-72.7,64.7-112.9,31c-10.1-8.5-18.4-19-27-28.1c-7.4,8-15.5,17.8-24.7,26.4
			c-15.8,14.8-35.2,21.7-56.6,18.9c-25.7-3.4-44.2-18.1-55.4-41.5c-8.4-17.5-8.1-36-4.6-54.5c6.8-35.4,25.6-64.7,49.1-91
			c29.5-33,60.1-65.1,90.2-97.6C493.2,1224.5,493.8,1224.1,495.1,1223z"/>
	</g>
	<g>
		<path d="M761.6,932.9c-14.9-15.5-29.6-30.3-43.7-45.7c-19.8-21.8-39.6-43.6-58.4-66.2c-16.9-20.3-29.8-43.2-37-68.7
			c-5.3-19-7.4-38.8-0.3-57.8c18.1-48.3,72.7-64.7,112.9-31c10.1,8.5,18.4,19,27,28.1c7.4-8,15.5-17.8,24.7-26.4
			c15.8-14.8,35.2-21.7,56.6-18.9c25.7,3.4,44.2,18.1,55.4,41.5c8.4,17.5,8.1,36,4.6,54.5c-6.8,35.4-25.6,64.7-49.1,91
			c-29.5,33-60.1,65.1-90.2,97.6C763.5,931.4,762.9,931.8,761.6,932.9z"/>
	</g>
	<g>
		<path d="M1324.5,1518.1c-14.9-15.5-29.6-30.3-43.7-45.7c-19.8-21.8-39.6-43.6-58.4-66.2c-16.9-20.3-29.8-43.2-37-68.7
			c-5.3-19-7.4-38.8-0.3-57.8c18.1-48.3,72.7-64.7,112.9-31c10.1,8.5,18.4,19,27,28.1c7.4-8,15.5-17.8,24.7-26.4
			c15.8-14.8,35.2-21.7,56.6-18.9c25.7,3.4,44.2,18.1,55.4,41.5c8.4,17.5,8.1,36,4.6,54.5c-6.8,35.4-25.6,64.7-49.1,91
			c-29.5,33-60.1,65.1-90.2,97.6C1326.4,1516.5,1325.7,1517,1324.5,1518.1z"/>
	</g>
	<g>
		<path d="M1324.5,656.1c-14.9-15.5-29.6-30.3-43.7-45.7c-19.8-21.8-39.6-43.6-58.4-66.2c-16.9-20.3-29.8-43.2-37-68.7
			c-5.3-19-7.4-38.8-0.3-57.8c18.1-48.3,72.7-64.7,112.9-31c10.1,8.5,18.4,19,27,28.1c7.4-8,15.5-17.8,24.7-26.4
			c15.8-14.8,35.2-21.7,56.6-18.9c25.7,3.4,44.2,18.1,55.4,41.5c8.4,17.5,8.1,36,4.6,54.5c-6.8,35.4-25.6,64.7-49.1,91
			c-29.5,33-60.1,65.1-90.2,97.6C1326.4,654.5,1325.7,655,1324.5,656.1z"/>
	</g>
</g>
<g id="purple">
	<g>
		<path class="st2" d="M220.1,355.5c-14.9-15.5-29.6-30.3-43.7-45.7c-19.8-21.8-39.6-43.6-58.4-66.2c-16.9-20.3-29.8-43.2-37-68.7
			c-5.3-19-7.4-38.8-0.3-57.8c18.1-48.3,72.7-64.7,112.9-31c10.1,8.5,18.4,19,27,28.1c7.4-8,15.5-17.8,24.7-26.4
			c15.8-14.8,35.2-21.7,56.6-18.9c25.7,3.4,44.2,18.1,55.4,41.5c8.4,17.5,8.1,36,4.6,54.5c-6.8,35.4-25.6,64.7-49.1,91
			c-29.5,33-60.1,65.1-90.2,97.6C222,354,221.3,354.4,220.1,355.5z"/>
	</g>
	<g>
		<path class="st2" d="M495.1,935.7c14.9,15.5,29.6,30.3,43.7,45.7c19.8,21.8,39.6,43.6,58.4,66.2c16.9,20.3,29.8,43.2,37,68.7
			c5.3,19,7.4,38.8,0.3,57.8c-18.1,48.3-72.7,64.7-112.9,31c-10.1-8.5-18.4-19-27-28.1c-7.4,8-15.5,17.8-24.7,26.4
			c-15.8,14.8-35.2,21.7-56.6,18.9c-25.7-3.4-44.2-18.1-55.4-41.5c-8.4-17.5-8.1-36-4.6-54.5c6.8-35.4,25.6-64.7,49.1-91
			c29.5-33,60.1-65.1,90.2-97.6C493.2,937.2,493.8,936.7,495.1,935.7z"/>
	</g>
	<g>
		<path class="st2" d="M761.6,645.6c-14.9-15.5-29.6-30.3-43.7-45.7c-19.8-21.8-39.6-43.6-58.4-66.2c-16.9-20.3-29.8-43.2-37-68.7
			c-5.3-19-7.4-38.8-0.3-57.8c18.1-48.3,72.7-64.7,112.9-31c10.1,8.5,18.4,19,27,28.1c7.4-8,15.5-17.8,24.7-26.4
			c15.8-14.8,35.2-21.7,56.6-18.9c25.7,3.4,44.2,18.1,55.4,41.5c8.4,17.5,8.1,36,4.6,54.5c-6.8,35.4-25.6,64.7-49.1,91
			c-29.5,33-60.1,65.1-90.2,97.6C763.5,644,762.9,644.5,761.6,645.6z"/>
	</g>
	<g>
		<path class="st2" d="M1324.5,1230.7c-14.9-15.5-29.6-30.3-43.7-45.7c-19.8-21.8-39.6-43.6-58.4-66.2c-16.9-20.3-29.8-43.2-37-68.7
			c-5.3-19-7.4-38.8-0.3-57.8c18.1-48.3,72.7-64.7,112.9-31c10.1,8.5,18.4,19,27,28.1c7.4-8,15.5-17.8,24.7-26.4
			c15.8-14.8,35.2-21.7,56.6-18.9c25.7,3.4,44.2,18.1,55.4,41.5c8.4,17.5,8.1,36,4.6,54.5c-6.8,35.4-25.6,64.7-49.1,91
			c-29.5,33-60.1,65.1-90.2,97.6C1326.4,1229.2,1325.7,1229.7,1324.5,1230.7z"/>
	</g>
</g>
</svg>
